<svg width="53" height="53" viewBox="0 0 53 53" fill="none" xmlns="http://www.w3.org/2000/svg">
<g filter="url(#filter0_d_19_172)">
<rect x="2.17822" y="1.48084" width="48" height="48" rx="8" fill="#0D2438" shape-rendering="crispEdges"/>
<path d="M11.697 21.4808V13.4808H14.6267C15.1944 13.4808 15.6645 13.5746 16.0369 13.7621C16.4093 13.947 16.6879 14.1983 16.8728 14.516C17.0577 14.8311 17.1501 15.1866 17.1501 15.5824C17.1501 15.9157 17.0889 16.197 16.9666 16.4262C16.8442 16.6527 16.6801 16.835 16.4744 16.973C16.2712 17.1084 16.0473 17.2074 15.8025 17.2699V17.348C16.0681 17.3611 16.3272 17.447 16.5798 17.6058C16.835 17.7621 17.046 17.9847 17.2126 18.2738C17.3793 18.5629 17.4626 18.9144 17.4626 19.3285C17.4626 19.7374 17.3663 20.1045 17.1736 20.4301C16.9835 20.753 16.6892 21.0095 16.2908 21.1996C15.8923 21.3871 15.3832 21.4808 14.7634 21.4808H11.697ZM12.9041 20.4457H14.6462C15.2244 20.4457 15.6384 20.3337 15.8884 20.1097C16.1384 19.8858 16.2634 19.6058 16.2634 19.2699C16.2634 19.0173 16.1996 18.7855 16.072 18.5746C15.9444 18.3637 15.7621 18.1957 15.5251 18.0707C15.2908 17.9457 15.0121 17.8832 14.6892 17.8832H12.9041V20.4457ZM12.9041 16.9418H14.5212C14.7921 16.9418 15.0356 16.8897 15.2517 16.7855C15.4705 16.6814 15.6436 16.5355 15.7712 16.348C15.9014 16.1579 15.9666 15.934 15.9666 15.6762C15.9666 15.3454 15.8507 15.0681 15.6189 14.8441C15.3871 14.6202 15.0317 14.5082 14.5525 14.5082H12.9041V16.9418ZM21.3865 21.6019C20.7953 21.6019 20.2862 21.4756 19.8591 21.223C19.4347 20.9678 19.1065 20.6097 18.8748 20.1488C18.6456 19.6853 18.531 19.1423 18.531 18.5199C18.531 17.9053 18.6456 17.3637 18.8748 16.8949C19.1065 16.4262 19.4294 16.0603 19.8435 15.7972C20.2602 15.5342 20.7472 15.4027 21.3044 15.4027C21.643 15.4027 21.9711 15.4587 22.2888 15.5707C22.6065 15.6827 22.8917 15.8584 23.1443 16.098C23.3969 16.3376 23.5961 16.6488 23.7419 17.0316C23.8878 17.4118 23.9607 17.8741 23.9607 18.4183V18.8324H19.1912V17.9574H22.8162C22.8162 17.6501 22.7537 17.378 22.6287 17.141C22.5037 16.9014 22.3279 16.7126 22.1013 16.5746C21.8774 16.4366 21.6143 16.3676 21.3123 16.3676C20.9841 16.3676 20.6977 16.4483 20.4529 16.6097C20.2107 16.7686 20.0232 16.9769 19.8904 17.2347C19.7602 17.49 19.6951 17.7673 19.6951 18.0668V18.7504C19.6951 19.1514 19.7654 19.4926 19.906 19.7738C20.0492 20.0551 20.2485 20.2699 20.5037 20.4183C20.7589 20.5642 21.057 20.6371 21.3982 20.6371C21.6195 20.6371 21.8214 20.6058 22.0037 20.5433C22.186 20.4782 22.3435 20.3819 22.4763 20.2543C22.6091 20.1267 22.7107 19.9691 22.781 19.7816L23.8865 19.9808C23.7979 20.3064 23.6391 20.5915 23.4099 20.8363C23.1833 21.0785 22.8982 21.2673 22.5544 21.4027C22.2133 21.5355 21.824 21.6019 21.3865 21.6019ZM26.4246 17.9183V21.4808H25.2566V15.4808H26.3777V16.4574H26.4519C26.5899 16.1397 26.8061 15.8845 27.1003 15.6918C27.3972 15.4991 27.7709 15.4027 28.2214 15.4027C28.6303 15.4027 28.9884 15.4887 29.2957 15.6605C29.6029 15.8298 29.8412 16.0824 30.0105 16.4183C30.1798 16.7543 30.2644 17.1696 30.2644 17.6644V21.4808H29.0964V17.8051C29.0964 17.3702 28.9832 17.0303 28.7566 16.7855C28.53 16.5381 28.2188 16.4144 27.823 16.4144C27.5522 16.4144 27.3113 16.473 27.1003 16.5902C26.892 16.7074 26.7266 16.8793 26.6042 17.1058C26.4845 17.3298 26.4246 17.6006 26.4246 17.9183ZM31.8308 15.4808H32.9988V21.8715C32.9988 22.2725 32.9259 22.6111 32.78 22.8871C32.6368 23.1631 32.4233 23.3728 32.1394 23.516C31.8582 23.6592 31.5105 23.7308 31.0964 23.7308C31.0548 23.7308 31.0157 23.7308 30.9792 23.7308C30.9402 23.7308 30.8998 23.7295 30.8582 23.7269V22.723C30.8946 22.723 30.9272 22.723 30.9558 22.723C30.9819 22.723 31.0118 22.723 31.0457 22.723C31.3217 22.723 31.5209 22.6488 31.6433 22.5004C31.7683 22.3545 31.8308 22.1423 31.8308 21.8637V15.4808ZM32.4089 14.5551C32.2058 14.5551 32.0313 14.4874 31.8855 14.3519C31.7423 14.2139 31.6707 14.0499 31.6707 13.8597C31.6707 13.667 31.7423 13.503 31.8855 13.3676C32.0313 13.2295 32.2058 13.1605 32.4089 13.1605C32.6121 13.1605 32.7852 13.2295 32.9285 13.3676C33.0743 13.503 33.1472 13.667 33.1472 13.8597C33.1472 14.0499 33.0743 14.2139 32.9285 14.3519C32.7852 14.4874 32.6121 14.5551 32.4089 14.5551ZM36.3162 21.6137C35.936 21.6137 35.5922 21.5433 35.2849 21.4027C34.9776 21.2595 34.7341 21.0525 34.5544 20.7816C34.3774 20.5108 34.2888 20.1788 34.2888 19.7855C34.2888 19.447 34.3539 19.1683 34.4841 18.9496C34.6143 18.7308 34.7901 18.5577 35.0115 18.4301C35.2328 18.3025 35.4802 18.2061 35.7537 18.141C36.0271 18.0759 36.3057 18.0264 36.5896 17.9926C36.949 17.9509 37.2406 17.917 37.4646 17.891C37.6886 17.8624 37.8513 17.8168 37.9529 17.7543C38.0544 17.6918 38.1052 17.5902 38.1052 17.4496V17.4222C38.1052 17.0811 38.0089 16.8168 37.8162 16.6293C37.6261 16.4418 37.3422 16.348 36.9646 16.348C36.5714 16.348 36.2615 16.4353 36.0349 16.6097C35.811 16.7816 35.656 16.973 35.5701 17.184L34.4724 16.934C34.6026 16.5694 34.7927 16.2751 35.0427 16.0512C35.2953 15.8246 35.5857 15.6605 35.9138 15.559C36.2419 15.4548 36.587 15.4027 36.949 15.4027C37.1886 15.4027 37.4425 15.4314 37.7107 15.4887C37.9815 15.5433 38.2341 15.6449 38.4685 15.7933C38.7055 15.9418 38.8995 16.154 39.0505 16.4301C39.2016 16.7035 39.2771 17.059 39.2771 17.4965V21.4808H38.1365V20.6605H38.0896C38.0141 20.8116 37.9008 20.96 37.7498 21.1058C37.5987 21.2517 37.4047 21.3728 37.1677 21.4691C36.9307 21.5655 36.6469 21.6137 36.3162 21.6137ZM36.5701 20.6762C36.893 20.6762 37.169 20.6124 37.3982 20.4847C37.63 20.3571 37.8057 20.1905 37.9255 19.9847C38.0479 19.7764 38.1091 19.5538 38.1091 19.3168V18.5433C38.0675 18.585 37.9867 18.6241 37.8669 18.6605C37.7498 18.6944 37.6156 18.7243 37.4646 18.7504C37.3136 18.7738 37.1664 18.7959 37.0232 18.8168C36.88 18.835 36.7602 18.8506 36.6638 18.8637C36.4373 18.8923 36.2302 18.9405 36.0427 19.0082C35.8578 19.0759 35.7094 19.1736 35.5974 19.3012C35.488 19.4262 35.4333 19.5928 35.4333 19.8012C35.4333 20.0902 35.5401 20.309 35.7537 20.4574C35.9672 20.6032 36.2393 20.6762 36.5701 20.6762Z" fill="#F7F8FC"/>
<path d="M17.0232 37.4808V31.4808H18.1443V32.4574H18.2185C18.3435 32.1267 18.5479 31.8689 18.8318 31.684C19.1156 31.4965 19.4555 31.4027 19.8513 31.4027C20.2524 31.4027 20.5883 31.4965 20.8591 31.684C21.1326 31.8715 21.3344 32.1293 21.4646 32.4574H21.5271C21.6703 32.1371 21.8982 31.8819 22.2107 31.6918C22.5232 31.4991 22.8956 31.4027 23.3279 31.4027C23.8722 31.4027 24.3162 31.5733 24.6599 31.9144C25.0063 32.2556 25.1794 32.7699 25.1794 33.4574V37.4808H24.0115V33.5668C24.0115 33.1605 23.9008 32.8663 23.6794 32.684C23.4581 32.5017 23.1938 32.4105 22.8865 32.4105C22.5063 32.4105 22.2107 32.5277 21.9998 32.7621C21.7888 32.9939 21.6833 33.292 21.6833 33.6566V37.4808H20.5193V33.4926C20.5193 33.167 20.4177 32.9053 20.2146 32.7074C20.0115 32.5095 19.7472 32.4105 19.4216 32.4105C19.2003 32.4105 18.9958 32.4691 18.8083 32.5863C18.6235 32.7009 18.4737 32.8611 18.3591 33.0668C18.2472 33.2725 18.1912 33.5108 18.1912 33.7816V37.4808H17.0232ZM26.7449 37.4808V31.4808H27.9128V37.4808H26.7449ZM27.3347 30.5551C27.1316 30.5551 26.9571 30.4874 26.8113 30.3519C26.6681 30.2139 26.5964 30.0499 26.5964 29.8597C26.5964 29.667 26.6681 29.503 26.8113 29.3676C26.9571 29.2295 27.1316 29.1605 27.3347 29.1605C27.5378 29.1605 27.711 29.2295 27.8542 29.3676C28.0001 29.503 28.073 29.667 28.073 29.8597C28.073 30.0499 28.0001 30.2139 27.8542 30.3519C27.711 30.4874 27.5378 30.5551 27.3347 30.5551ZM29.3591 37.4808V36.6801L32.6091 32.5512V32.4965H29.4646V31.4808H34.0662V32.3324L30.9412 36.4105V36.4652H34.1755V37.4808H29.3591Z" fill="#F7F8FC"/>
</g>
<defs>
<filter id="filter0_d_19_172" x="0.178223" y="0.480843" width="52" height="52" filterUnits="userSpaceOnUse" color-interpolation-filters="sRGB">
<feFlood flood-opacity="0" result="BackgroundImageFix"/>
<feColorMatrix in="SourceAlpha" type="matrix" values="0 0 0 0 0 0 0 0 0 0 0 0 0 0 0 0 0 0 127 0" result="hardAlpha"/>
<feOffset dy="1"/>
<feGaussianBlur stdDeviation="1"/>
<feComposite in2="hardAlpha" operator="out"/>
<feColorMatrix type="matrix" values="0 0 0 0 0 0 0 0 0 0 0 0 0 0 0 0 0 0 0.05 0"/>
<feBlend mode="normal" in2="BackgroundImageFix" result="effect1_dropShadow_19_172"/>
<feBlend mode="normal" in="SourceGraphic" in2="effect1_dropShadow_19_172" result="shape"/>
</filter>
</defs>
</svg>
